%
M48
M72
T01C0.0300
T02C0.0400
T03C0.1000
T04C0.1250
%
T01
X8611Y13611
X7611Y13611
X9611Y13611
X10611Y13611
X10611Y12611
X9611Y12611
X8611Y12611
X7611Y12611
X7611Y11611
X7611Y10611
X8611Y10611
X8611Y11611
X9611Y11611
X9611Y10611
X12611Y12611
X12611Y13611
X11611Y13611
X11611Y12611
X10611Y11611
X10611Y10611
X11611Y10611
X11611Y11611
X12611Y11611
X12611Y10611
X13611Y11611
X13611Y12611
X13611Y13611
X14611Y13611
X14611Y12611
X14611Y11611
X14611Y10611
X13611Y10611
X7611Y14611
X8611Y14611
X9611Y14611
X10611Y14611
X11611Y14611
X12611Y14611
X13611Y14611
X14611Y14611
X14611Y15611
X13611Y15611
X12611Y15611
X11611Y15611
X10611Y15611
X9611Y15611
X8611Y15611
X7611Y15611
X7611Y16611
X8611Y16611
X9611Y16611
X10611Y16611
X11611Y16611
X12611Y16611
X13611Y16611
X14611Y16611
X14611Y17611
X13611Y17611
X10611Y17611
X9611Y17611
X12611Y17611
X11611Y17611
X8611Y17611
X7611Y17611
T02
X3111Y23611
X12111Y1611
X3111Y2611
X6111Y2611
X4111Y23611
X16111Y22611
X16111Y23611
X15111Y23611
X14111Y23611
X13111Y23611
X12111Y23611
X13111Y22611
X14111Y22611
X15111Y22611
X17111Y22611
X18111Y23611
X19111Y22611
X19111Y23611
X18111Y22611
X17111Y23611
X11111Y23611
X11111Y22611
X10111Y23611
X9111Y23611
X9111Y22611
X10111Y22611
X12111Y22611
X8111Y23611
X8111Y22611
X7111Y22611
X6111Y22611
X5111Y22611
X6111Y23611
X7111Y23611
X5111Y23611
X4111Y22611
X3111Y22611
X19111Y2611
X19111Y1611
X18111Y1611
X17111Y1611
X16111Y1611
X15111Y1611
X14111Y1611
X13111Y1611
X12111Y2611
X13111Y2611
X14111Y2611
X15111Y2611
X16111Y2611
X17111Y2611
X18111Y2611
X11111Y1611
X9111Y1611
X7111Y1611
X5111Y1611
X3111Y1611
X4111Y1611
X4111Y2611
X5111Y2611
X6111Y1611
X7111Y2611
X8111Y2611
X8111Y1611
X9111Y2611
X10111Y2611
X11111Y2611
X10111Y1611
T03
X1611Y10611
X5611Y11611
X16611Y16611
X20611Y17611
X1611Y17611
X5611Y16611
X16611Y11611
X20611Y10611
T04
X1111Y24611
X21111Y24611
X1111Y1111
X21111Y1111
M30
