G75*
G70*
%OFA0B0*%
%FSLAX24Y24*%
%IPPOS*%
%LPD*%
%AMOC8*
5,1,8,0,0,1.08239X$1,22.5*
%
%ADD10C,0.1330*%
%ADD11OC8,0.0680*%
%ADD12C,0.0640*%
%ADD13C,0.1480*%
D10*
X001111Y001111D03*
X021111Y001111D03*
X021111Y024611D03*
X001111Y024611D03*
D11*
X003111Y023611D03*
X004111Y023611D03*
X004111Y022611D03*
X003111Y022611D03*
X005111Y022611D03*
X005111Y023611D03*
X006111Y023611D03*
X006111Y022611D03*
X007111Y022611D03*
X007111Y023611D03*
X008111Y023611D03*
X008111Y022611D03*
X009111Y022611D03*
X009111Y023611D03*
X010111Y023611D03*
X010111Y022611D03*
X011111Y022611D03*
X011111Y023611D03*
X012111Y023611D03*
X012111Y022611D03*
X013111Y022611D03*
X013111Y023611D03*
X014111Y023611D03*
X014111Y022611D03*
X015111Y022611D03*
X015111Y023611D03*
X016111Y023611D03*
X016111Y022611D03*
X017111Y022611D03*
X017111Y023611D03*
X018111Y023611D03*
X018111Y022611D03*
X019111Y022611D03*
X019111Y023611D03*
X019111Y002611D03*
X019111Y001611D03*
X018111Y001611D03*
X018111Y002611D03*
X017111Y002611D03*
X017111Y001611D03*
X016111Y001611D03*
X016111Y002611D03*
X015111Y002611D03*
X015111Y001611D03*
X014111Y001611D03*
X014111Y002611D03*
X013111Y002611D03*
X013111Y001611D03*
X012111Y001611D03*
X012111Y002611D03*
X011111Y002611D03*
X011111Y001611D03*
X010111Y001611D03*
X010111Y002611D03*
X009111Y002611D03*
X009111Y001611D03*
X008111Y001611D03*
X008111Y002611D03*
X007111Y002611D03*
X007111Y001611D03*
X006111Y001611D03*
X006111Y002611D03*
X005111Y002611D03*
X005111Y001611D03*
X004111Y001611D03*
X004111Y002611D03*
X003111Y002611D03*
X003111Y001611D03*
D12*
X007611Y010611D03*
X007611Y011611D03*
X007611Y012611D03*
X007611Y013611D03*
X007611Y014611D03*
X007611Y015611D03*
X007611Y016611D03*
X007611Y017611D03*
X008611Y017611D03*
X008611Y016611D03*
X008611Y015611D03*
X008611Y014611D03*
X008611Y013611D03*
X008611Y012611D03*
X008611Y011611D03*
X008611Y010611D03*
X009611Y010611D03*
X009611Y011611D03*
X009611Y012611D03*
X009611Y013611D03*
X009611Y014611D03*
X009611Y015611D03*
X009611Y016611D03*
X009611Y017611D03*
X010611Y017611D03*
X010611Y016611D03*
X010611Y015611D03*
X010611Y014611D03*
X010611Y013611D03*
X010611Y012611D03*
X010611Y011611D03*
X010611Y010611D03*
X011611Y010611D03*
X011611Y011611D03*
X011611Y012611D03*
X011611Y013611D03*
X011611Y014611D03*
X011611Y015611D03*
X011611Y016611D03*
X011611Y017611D03*
X012611Y017611D03*
X012611Y016611D03*
X012611Y015611D03*
X012611Y014611D03*
X012611Y013611D03*
X012611Y012611D03*
X012611Y011611D03*
X012611Y010611D03*
X013611Y010611D03*
X013611Y011611D03*
X013611Y012611D03*
X013611Y013611D03*
X013611Y014611D03*
X013611Y015611D03*
X013611Y016611D03*
X013611Y017611D03*
X014611Y017611D03*
X014611Y016611D03*
X014611Y015611D03*
X014611Y014611D03*
X014611Y013611D03*
X014611Y012611D03*
X014611Y011611D03*
X014611Y010611D03*
D13*
X016611Y011611D03*
X020611Y010611D03*
X016611Y016611D03*
X020611Y017611D03*
X005611Y016611D03*
X001611Y017611D03*
X005611Y011611D03*
X001611Y010611D03*
M02*
