G75*
G70*
%OFA0B0*%
%FSLAX24Y24*%
%IPPOS*%
%LPD*%
%AMOC8*
5,1,8,0,0,1.08239X$1,22.5*
%
%ADD10C,0.0000*%
D10*
X000111Y000111D02*
X000111Y025591D01*
X022091Y025591D01*
X022091Y000111D01*
X000111Y000111D01*
X000486Y001111D02*
X000488Y001161D01*
X000494Y001210D01*
X000504Y001259D01*
X000517Y001306D01*
X000535Y001353D01*
X000556Y001398D01*
X000580Y001441D01*
X000608Y001482D01*
X000639Y001521D01*
X000673Y001557D01*
X000710Y001591D01*
X000750Y001621D01*
X000791Y001648D01*
X000835Y001672D01*
X000880Y001692D01*
X000927Y001708D01*
X000975Y001721D01*
X001024Y001730D01*
X001074Y001735D01*
X001123Y001736D01*
X001173Y001733D01*
X001222Y001726D01*
X001271Y001715D01*
X001318Y001701D01*
X001364Y001682D01*
X001409Y001660D01*
X001452Y001635D01*
X001492Y001606D01*
X001530Y001574D01*
X001566Y001540D01*
X001599Y001502D01*
X001628Y001462D01*
X001654Y001420D01*
X001677Y001376D01*
X001696Y001330D01*
X001712Y001283D01*
X001724Y001234D01*
X001732Y001185D01*
X001736Y001136D01*
X001736Y001086D01*
X001732Y001037D01*
X001724Y000988D01*
X001712Y000939D01*
X001696Y000892D01*
X001677Y000846D01*
X001654Y000802D01*
X001628Y000760D01*
X001599Y000720D01*
X001566Y000682D01*
X001530Y000648D01*
X001492Y000616D01*
X001452Y000587D01*
X001409Y000562D01*
X001364Y000540D01*
X001318Y000521D01*
X001271Y000507D01*
X001222Y000496D01*
X001173Y000489D01*
X001123Y000486D01*
X001074Y000487D01*
X001024Y000492D01*
X000975Y000501D01*
X000927Y000514D01*
X000880Y000530D01*
X000835Y000550D01*
X000791Y000574D01*
X000750Y000601D01*
X000710Y000631D01*
X000673Y000665D01*
X000639Y000701D01*
X000608Y000740D01*
X000580Y000781D01*
X000556Y000824D01*
X000535Y000869D01*
X000517Y000916D01*
X000504Y000963D01*
X000494Y001012D01*
X000488Y001061D01*
X000486Y001111D01*
X000486Y024611D02*
X000488Y024661D01*
X000494Y024710D01*
X000504Y024759D01*
X000517Y024806D01*
X000535Y024853D01*
X000556Y024898D01*
X000580Y024941D01*
X000608Y024982D01*
X000639Y025021D01*
X000673Y025057D01*
X000710Y025091D01*
X000750Y025121D01*
X000791Y025148D01*
X000835Y025172D01*
X000880Y025192D01*
X000927Y025208D01*
X000975Y025221D01*
X001024Y025230D01*
X001074Y025235D01*
X001123Y025236D01*
X001173Y025233D01*
X001222Y025226D01*
X001271Y025215D01*
X001318Y025201D01*
X001364Y025182D01*
X001409Y025160D01*
X001452Y025135D01*
X001492Y025106D01*
X001530Y025074D01*
X001566Y025040D01*
X001599Y025002D01*
X001628Y024962D01*
X001654Y024920D01*
X001677Y024876D01*
X001696Y024830D01*
X001712Y024783D01*
X001724Y024734D01*
X001732Y024685D01*
X001736Y024636D01*
X001736Y024586D01*
X001732Y024537D01*
X001724Y024488D01*
X001712Y024439D01*
X001696Y024392D01*
X001677Y024346D01*
X001654Y024302D01*
X001628Y024260D01*
X001599Y024220D01*
X001566Y024182D01*
X001530Y024148D01*
X001492Y024116D01*
X001452Y024087D01*
X001409Y024062D01*
X001364Y024040D01*
X001318Y024021D01*
X001271Y024007D01*
X001222Y023996D01*
X001173Y023989D01*
X001123Y023986D01*
X001074Y023987D01*
X001024Y023992D01*
X000975Y024001D01*
X000927Y024014D01*
X000880Y024030D01*
X000835Y024050D01*
X000791Y024074D01*
X000750Y024101D01*
X000710Y024131D01*
X000673Y024165D01*
X000639Y024201D01*
X000608Y024240D01*
X000580Y024281D01*
X000556Y024324D01*
X000535Y024369D01*
X000517Y024416D01*
X000504Y024463D01*
X000494Y024512D01*
X000488Y024561D01*
X000486Y024611D01*
X020486Y024611D02*
X020488Y024661D01*
X020494Y024710D01*
X020504Y024759D01*
X020517Y024806D01*
X020535Y024853D01*
X020556Y024898D01*
X020580Y024941D01*
X020608Y024982D01*
X020639Y025021D01*
X020673Y025057D01*
X020710Y025091D01*
X020750Y025121D01*
X020791Y025148D01*
X020835Y025172D01*
X020880Y025192D01*
X020927Y025208D01*
X020975Y025221D01*
X021024Y025230D01*
X021074Y025235D01*
X021123Y025236D01*
X021173Y025233D01*
X021222Y025226D01*
X021271Y025215D01*
X021318Y025201D01*
X021364Y025182D01*
X021409Y025160D01*
X021452Y025135D01*
X021492Y025106D01*
X021530Y025074D01*
X021566Y025040D01*
X021599Y025002D01*
X021628Y024962D01*
X021654Y024920D01*
X021677Y024876D01*
X021696Y024830D01*
X021712Y024783D01*
X021724Y024734D01*
X021732Y024685D01*
X021736Y024636D01*
X021736Y024586D01*
X021732Y024537D01*
X021724Y024488D01*
X021712Y024439D01*
X021696Y024392D01*
X021677Y024346D01*
X021654Y024302D01*
X021628Y024260D01*
X021599Y024220D01*
X021566Y024182D01*
X021530Y024148D01*
X021492Y024116D01*
X021452Y024087D01*
X021409Y024062D01*
X021364Y024040D01*
X021318Y024021D01*
X021271Y024007D01*
X021222Y023996D01*
X021173Y023989D01*
X021123Y023986D01*
X021074Y023987D01*
X021024Y023992D01*
X020975Y024001D01*
X020927Y024014D01*
X020880Y024030D01*
X020835Y024050D01*
X020791Y024074D01*
X020750Y024101D01*
X020710Y024131D01*
X020673Y024165D01*
X020639Y024201D01*
X020608Y024240D01*
X020580Y024281D01*
X020556Y024324D01*
X020535Y024369D01*
X020517Y024416D01*
X020504Y024463D01*
X020494Y024512D01*
X020488Y024561D01*
X020486Y024611D01*
X020486Y001111D02*
X020488Y001161D01*
X020494Y001210D01*
X020504Y001259D01*
X020517Y001306D01*
X020535Y001353D01*
X020556Y001398D01*
X020580Y001441D01*
X020608Y001482D01*
X020639Y001521D01*
X020673Y001557D01*
X020710Y001591D01*
X020750Y001621D01*
X020791Y001648D01*
X020835Y001672D01*
X020880Y001692D01*
X020927Y001708D01*
X020975Y001721D01*
X021024Y001730D01*
X021074Y001735D01*
X021123Y001736D01*
X021173Y001733D01*
X021222Y001726D01*
X021271Y001715D01*
X021318Y001701D01*
X021364Y001682D01*
X021409Y001660D01*
X021452Y001635D01*
X021492Y001606D01*
X021530Y001574D01*
X021566Y001540D01*
X021599Y001502D01*
X021628Y001462D01*
X021654Y001420D01*
X021677Y001376D01*
X021696Y001330D01*
X021712Y001283D01*
X021724Y001234D01*
X021732Y001185D01*
X021736Y001136D01*
X021736Y001086D01*
X021732Y001037D01*
X021724Y000988D01*
X021712Y000939D01*
X021696Y000892D01*
X021677Y000846D01*
X021654Y000802D01*
X021628Y000760D01*
X021599Y000720D01*
X021566Y000682D01*
X021530Y000648D01*
X021492Y000616D01*
X021452Y000587D01*
X021409Y000562D01*
X021364Y000540D01*
X021318Y000521D01*
X021271Y000507D01*
X021222Y000496D01*
X021173Y000489D01*
X021123Y000486D01*
X021074Y000487D01*
X021024Y000492D01*
X020975Y000501D01*
X020927Y000514D01*
X020880Y000530D01*
X020835Y000550D01*
X020791Y000574D01*
X020750Y000601D01*
X020710Y000631D01*
X020673Y000665D01*
X020639Y000701D01*
X020608Y000740D01*
X020580Y000781D01*
X020556Y000824D01*
X020535Y000869D01*
X020517Y000916D01*
X020504Y000963D01*
X020494Y001012D01*
X020488Y001061D01*
X020486Y001111D01*
M02*
