G75*
G70*
%OFA0B0*%
%FSLAX24Y24*%
%IPPOS*%
%LPD*%
%AMOC8*
5,1,8,0,0,1.08239X$1,22.5*
%
%ADD10C,0.0600*%
%ADD11C,0.0460*%
%ADD12C,0.0080*%
%ADD13C,0.1400*%
D10*
X003111Y001611D03*
X003111Y002611D03*
X004111Y002611D03*
X004111Y001611D03*
X005111Y001611D03*
X005111Y002611D03*
X006111Y002611D03*
X006111Y001611D03*
X007111Y001611D03*
X007111Y002611D03*
X008111Y002611D03*
X008111Y001611D03*
X009111Y001611D03*
X009111Y002611D03*
X010111Y002611D03*
X010111Y001611D03*
X011111Y001611D03*
X011111Y002611D03*
X012111Y002611D03*
X012111Y001611D03*
X013111Y001611D03*
X013111Y002611D03*
X014111Y002611D03*
X014111Y001611D03*
X015111Y001611D03*
X015111Y002611D03*
X016111Y002611D03*
X016111Y001611D03*
X017111Y001611D03*
X017111Y002611D03*
X018111Y002611D03*
X018111Y001611D03*
X019111Y001611D03*
X019111Y002611D03*
X019111Y022611D03*
X019111Y023611D03*
X018111Y023611D03*
X018111Y022611D03*
X017111Y022611D03*
X017111Y023611D03*
X016111Y023611D03*
X016111Y022611D03*
X015111Y022611D03*
X015111Y023611D03*
X014111Y023611D03*
X014111Y022611D03*
X013111Y022611D03*
X013111Y023611D03*
X012111Y023611D03*
X012111Y022611D03*
X011111Y022611D03*
X011111Y023611D03*
X010111Y023611D03*
X010111Y022611D03*
X009111Y022611D03*
X009111Y023611D03*
X008111Y023611D03*
X008111Y022611D03*
X007111Y022611D03*
X007111Y023611D03*
X006111Y023611D03*
X006111Y022611D03*
X005111Y022611D03*
X005111Y023611D03*
X004111Y023611D03*
X004111Y022611D03*
X003111Y022611D03*
X003111Y023611D03*
D11*
X007611Y017611D03*
X008611Y017611D03*
X008611Y016611D03*
X008611Y015611D03*
X008611Y014611D03*
X008611Y013611D03*
X008611Y012611D03*
X008611Y011611D03*
X008611Y010611D03*
X007611Y010611D03*
X007611Y011611D03*
X007611Y012611D03*
X007611Y013611D03*
X007611Y014611D03*
X007611Y015611D03*
X007611Y016611D03*
X009611Y016611D03*
X009611Y017611D03*
X010611Y017611D03*
X010611Y016611D03*
X010611Y015611D03*
X010611Y014611D03*
X010611Y013611D03*
X010611Y012611D03*
X010611Y011611D03*
X010611Y010611D03*
X009611Y010611D03*
X009611Y011611D03*
X009611Y012611D03*
X009611Y013611D03*
X009611Y014611D03*
X009611Y015611D03*
X011611Y015611D03*
X011611Y016611D03*
X011611Y017611D03*
X012611Y017611D03*
X012611Y016611D03*
X012611Y015611D03*
X012611Y014611D03*
X012611Y013611D03*
X012611Y012611D03*
X012611Y011611D03*
X012611Y010611D03*
X011611Y010611D03*
X011611Y011611D03*
X011611Y012611D03*
X011611Y013611D03*
X011611Y014611D03*
X013611Y014611D03*
X013611Y015611D03*
X013611Y016611D03*
X013611Y017611D03*
X014611Y017611D03*
X014611Y016611D03*
X014611Y015611D03*
X014611Y014611D03*
X014611Y013611D03*
X014611Y012611D03*
X014611Y011611D03*
X014611Y010611D03*
X013611Y010611D03*
X013611Y011611D03*
X013611Y012611D03*
X013611Y013611D03*
D12*
X013611Y011611D02*
X014111Y011111D01*
X014111Y009611D01*
X013611Y009111D01*
X013611Y002111D01*
X014111Y001611D01*
X014111Y002611D02*
X014111Y008611D01*
X015111Y009611D01*
X015111Y011111D01*
X014611Y011611D01*
X013111Y011111D02*
X013111Y002611D01*
X012611Y002111D02*
X013111Y001611D01*
X012611Y002111D02*
X012611Y009611D01*
X012111Y010111D01*
X012111Y011111D01*
X011611Y011611D01*
X011111Y011111D02*
X011111Y009611D01*
X012111Y008611D01*
X012111Y002611D01*
X011611Y002111D02*
X012111Y001611D01*
X011611Y002111D02*
X011611Y008111D01*
X011111Y008611D01*
X010611Y008611D01*
X010111Y009111D01*
X010111Y011111D01*
X009611Y011611D01*
X009111Y011111D02*
X009111Y008611D01*
X009611Y008111D01*
X010611Y008111D01*
X011111Y007611D01*
X011111Y002611D01*
X010611Y002111D02*
X011111Y001611D01*
X010611Y002111D02*
X010611Y007111D01*
X010111Y007611D01*
X008611Y007611D01*
X008111Y008111D01*
X008111Y011111D01*
X007611Y011611D01*
X008611Y011611D02*
X009111Y011111D01*
X010611Y011611D02*
X011111Y011111D01*
X012611Y011611D02*
X013111Y011111D01*
X012611Y015611D02*
X013111Y016111D01*
X013111Y018111D01*
X013611Y018611D01*
X013611Y023111D01*
X013111Y023611D01*
X012611Y023111D02*
X012111Y023611D01*
X012611Y023111D02*
X012611Y019611D01*
X012111Y019111D01*
X011611Y019111D01*
X011111Y018611D01*
X011111Y016111D01*
X010611Y015611D01*
X010111Y016111D02*
X010111Y019111D01*
X010611Y019611D01*
X011611Y019611D01*
X012111Y020111D01*
X012111Y022611D01*
X011611Y023111D02*
X011111Y023611D01*
X011611Y023111D02*
X011611Y020611D01*
X011111Y020111D01*
X009611Y020111D01*
X009111Y019611D01*
X009111Y016111D01*
X008611Y015611D01*
X008111Y016111D02*
X008111Y020111D01*
X008611Y020611D01*
X010611Y020611D01*
X011111Y021111D01*
X011111Y022611D01*
X013111Y022611D02*
X013111Y019111D01*
X012111Y018111D01*
X012111Y016111D01*
X011611Y015611D01*
X010111Y016111D02*
X009611Y015611D01*
X008111Y016111D02*
X007611Y015611D01*
X013611Y015611D02*
X014111Y016111D01*
X014111Y022611D01*
X014611Y023111D02*
X014111Y023611D01*
X014611Y023111D02*
X014611Y018611D01*
X015111Y018111D01*
X015111Y016111D01*
X014611Y015611D01*
D13*
X016611Y016611D03*
X020611Y017611D03*
X016611Y011611D03*
X020611Y010611D03*
X005611Y011611D03*
X001611Y010611D03*
X005611Y016611D03*
X001611Y017611D03*
M02*
